<svg xmlns="http://www.w3.org/2000/svg" xmlns:xlink="http://www.w3.org/1999/xlink" width="64" height="64" version="1.1" viewBox="0 0 64 64"><title>ic-doc</title><desc>Created with Sketch.</desc><g id="Page-1" fill="none" fill-rule="evenodd" stroke="none" stroke-width="1"><g id="ic-doc" fill-rule="nonzero"><circle id="Oval" cx="32" cy="32" r="32" fill="#5A3574"/><g id="Group" fill="#231F20" opacity=".2" transform="translate(12.000000, 14.000000)"><path id="Shape" d="M40,34 C40,36.209 38.209,38 36,38 L4,38 C1.791,38 0,36.209 0,34 L0,4 C0,1.791 1.791,0 4,0 L36,0 C38.209,0 40,1.791 40,4 L40,34 Z"/></g><path id="Shape" fill="#FFF" d="M12,21.5 L12,46 C12,48.209 13.791,50 16,50 L48,50 C50.209,50 52,48.209 52,46 L52,21.5 L12,21.5 Z"/><g id="Group" fill="#231F20" opacity=".2" transform="translate(12.000000, 14.000000)"><path id="Shape" d="M40,4 C40,1.791 38.209,0 36,0 L4,0 C1.791,0 0,1.791 0,4 L0,10 L40,10 L40,4 Z"/></g><path id="Shape" fill="#E0E0D1" d="M52,16 C52,13.791 50.209,12 48,12 L16,12 C13.791,12 12,13.791 12,16 L12,22 L52,22 L52,16 Z"/><circle id="Oval" cx="23" cy="17" r="2" fill="#E0995E"/><circle id="Oval" cx="29" cy="17" r="2" fill="#9DC479"/><circle id="Oval" cx="17" cy="17" r="2" fill="#BA5F5B"/><rect id="Rectangle-path" width="12" height="18" x="16" y="28" fill="#6B6B65"/><rect id="Rectangle-path" width="16" height="2" x="32" y="28" fill="#E0E0D1"/><rect id="Rectangle-path" width="16" height="2" x="32" y="32" fill="#E0E0D1"/><rect id="Rectangle-path" width="16" height="2" x="32" y="36" fill="#E0E0D1"/><rect id="Rectangle-path" width="16" height="2" x="32" y="40" fill="#E0E0D1"/><rect id="Rectangle-path" width="16" height="2" x="32" y="44" fill="#E0E0D1"/></g></g></svg>